<?xml version="1.0" encoding="utf-8"?>
<!-- Generator: Adobe Illustrator 25.3.1, SVG Export Plug-In . SVG Version: 6.00 Build 0)  -->
<svg version="1.1"  xmlns="http://www.w3.org/2000/svg" xmlns:xlink="http://www.w3.org/1999/xlink" x="0px" y="0px"
	 viewBox="0 0 150 32" style="enable-background:new 0 0 150 32;" xml:space="preserve">
<g>
	<g>
		<path id="logo" d="M109.1,0c-1.6,0-2.9,1.3-2.9,2.9c0,1.6,1.3,2.9,2.9,2.9s2.9-1.3,2.9-2.9C111.9,1.3,110.7,0,109.1,0z M13.6,9
			c-1.3-1.3-2.9-1.9-5.2-1.9C3.3,7.2,0,10.7,0,16.2c0,5.4,3.2,8.9,8.2,8.9c2.3,0,3.9-0.6,5.4-2c-0.1,1.2-0.3,2-0.7,2.6
			c-0.8,1.3-2.4,2-4.5,2c-2,0-3.2-0.6-4.3-2.1l-0.3-0.3l-3.7,2.6l0.3,0.4c2.1,2.4,4.2,3.3,7.9,3.3c3.2,0,5.7-0.7,7.3-2
			c1.8-1.6,2.7-4,2.7-7.8V11.6c0-1.7,0.1-2.5,0.2-3.7l0-0.5h-4.9V9z M12.7,19.2c-0.8,1.3-2.3,2.2-3.8,2.2c-1,0-2.2-0.5-2.9-1.2
			c-0.8-0.8-1.2-2.2-1.2-3.9c0-3.3,1.7-5.4,4.4-5.4c0.9,0,1.8,0.3,2.6,1c1.1,0.9,1.7,2.3,1.7,4.1C13.5,17.3,13.3,18.4,12.7,19.2z
			 M29.2,6.9c-5.7,0-9.4,3.8-9.4,9.6c0,5.8,3.7,9.6,9.4,9.6c5.5,0,9.3-3.9,9.3-9.7C38.5,10.7,34.9,6.9,29.2,6.9z M29.2,22.1
			c-2.9,0-4.6-2.1-4.6-5.6c0-3.5,1.7-5.6,4.6-5.6c2.9,0,4.6,2,4.6,5.7C33.8,20.1,32.1,22.1,29.2,22.1z M49.1,6.9
			c-5.7,0-9.4,3.8-9.4,9.6c0,5.8,3.7,9.6,9.4,9.6c5.5,0,9.3-3.9,9.3-9.7C58.4,10.7,54.7,6.9,49.1,6.9z M49.1,22.1
			c-2.9,0-4.6-2.1-4.6-5.6c-0.1-3.5,1.7-5.6,4.6-5.6s4.6,2,4.6,5.7C53.7,20.1,52,22.1,49.1,22.1z M78.6,1.2l0-0.5h-5.2l0.1,0.5
			c0.2,1.3,0.2,2.3,0.2,4v4c-0.3-0.3-0.5-0.5-0.8-0.7c-1.2-1-2.9-1.5-4.8-1.5c-5.2,0-8.5,3.7-8.5,9.5c0,3.4,1.2,6.3,3.3,7.9
			c1.4,1.1,3.1,1.6,5.3,1.6c2.6,0,4.2-0.6,5.6-2.2v1.7h4.9l0-0.5c-0.2-1.2-0.2-2.2-0.2-4V5.2C78.4,3.7,78.4,2.7,78.6,1.2z
			 M72.5,20.1c-0.8,1.1-2.2,1.8-3.6,1.8c-2.8,0-4.5-2.1-4.5-5.4c0-3.4,1.7-5.5,4.3-5.5c1.3,0,2.7,0.6,3.6,1.6
			c0.8,0.9,1.3,2.4,1.3,3.7C73.6,17.8,73.2,19.2,72.5,20.1z M100.1,7.8c-0.1,0.9-0.3,2.3-0.6,3.5l-1.7,6c0,0.1-0.1,0.3-0.2,0.6
			c-0.1-0.2-0.1-0.4-0.2-0.5l-2.2-6.8c-0.3-0.9-0.6-2.3-0.8-2.8l-0.1-0.4h-3.9l0,0.4c-0.1,0.6-0.5,2-0.7,2.8l-2.1,6.6
			c0,0.1-0.1,0.4-0.2,0.8c-0.1-0.3-0.1-0.5-0.2-0.7l-1.7-5.9c-0.3-1.1-0.6-2.6-0.6-3.5l0-0.4h-5.4L79.7,8c0.4,1.1,0.9,2.4,1.2,3.7
			l3.3,10.7c0.5,1.6,0.6,2,0.8,2.8l0.1,0.3h4.2l0.1-0.3c0.1-0.6,0.5-1.8,0.8-2.8l2.3-7.1c0-0.1,0.1-0.3,0.2-0.6
			c0.1,0.3,0.2,0.5,0.2,0.6l2.3,7.1c0.3,0.9,0.6,2,0.8,2.8l0.1,0.4h4.2l0.1-0.3c0.2-0.8,0.3-1.4,0.8-2.8l3.6-11.8
			c0.5-1.6,0.6-1.9,0.9-2.7l0.2-0.6h-5.4L100.1,7.8z M111.7,7.9l0.1-0.5h-5.4l0.1,0.5c0.2,1.2,0.2,2.2,0.2,3.9v9.5
			c0,1.5-0.1,2.6-0.2,3.9l-0.1,0.5h5.3l-0.1-0.5c-0.1-1.3-0.2-2.3-0.2-3.9v-9.4C111.5,10,111.6,9.1,111.7,7.9z M130.8,21.3V14
			c0-2.1-0.3-3.4-1.1-4.5c-1.2-1.6-3-2.4-5.4-2.4c-2.4,0-4,0.6-5.6,2.4V7.4h-5l0.1,0.5c0.2,1.2,0.2,2.2,0.2,3.9v9.5
			c0,1.6-0.1,2.6-0.2,3.9l-0.1,0.5h5.3l-0.1-0.5c-0.2-1.2-0.2-2.3-0.2-3.9v-6c1.2-2.8,2.9-4.2,4.8-4.2c1,0,1.7,0.4,2.1,1
			c0.3,0.5,0.5,1.3,0.5,2.4v6.7c0,1.5,0,2.5-0.2,3.9l0,0.5h5.3l-0.1-0.5C130.9,24.1,130.8,23,130.8,21.3z M144.6,20.8
			c-0.8,0.9-2,1.4-3.3,1.4c-1.4,0-2.6-0.5-3.4-1.5c-0.6-0.7-0.8-1.4-1-2.7h13l0-0.5c-0.1-0.7-0.1-0.8-0.1-0.8
			c-0.1-2.1-0.3-3.2-0.9-4.7c-1.2-3.1-4.2-5-7.9-5c-5.4,0-8.9,3.8-8.9,9.7c0,5.9,3.6,9.6,9.1,9.6c2.7,0,4.8-0.8,6.5-2.5
			c0.6-0.6,0.9-1.1,1.4-1.9l-3.9-2C145,20.3,144.9,20.5,144.6,20.8z M141.1,10.8c1.3,0,2.2,0.3,2.9,1.1c0.6,0.6,0.9,1.2,1.1,2.2h-8
			C137.7,12.1,139.1,10.8,141.1,10.8z"/>
	</g>
</g>
</svg>
